<svg width="57" height="43" viewBox="0 0 57 43" fill="none" xmlns="http://www.w3.org/2000/svg">
<path fill-rule="evenodd" clip-rule="evenodd" d="M26.888 0.733052C26.6023 0.104575 25.8612 -0.173324 25.2327 0.112348C24.6043 0.398012 24.3268 1.13987 24.6124 1.76834L24.6204 1.786L24.646 1.84274C24.6683 1.89237 24.7005 1.96451 24.7399 2.05334C24.8187 2.23135 24.9252 2.4747 25.0363 2.73736C25.1514 3.00954 25.259 3.27353 25.3458 3.49873C23.5934 4.46991 22.3784 6.29276 22.2596 8.4085L9.01741 11.0221C8.98794 11.0277 8.95878 11.0343 8.92999 11.0419C8.50658 11.1536 8.18646 11.4738 8.05949 11.8685L3.68688 24.5005H1.24994C0.559607 24.5005 0 25.0602 0 25.7505C0 30.8591 4.14139 35.0003 9.25 35.0003C14.3586 35.0003 18.5 30.8591 18.5 25.7505C18.5 25.0602 17.9404 24.5005 17.2501 24.5005H15.1202L10.932 13.1924L22.6396 10.8817C23.414 12.9191 25.2664 14.4254 27.5 14.7039V40.5003H11.75C11.0596 40.5003 10.5 41.0599 10.5 41.7503C10.5 42.4407 11.0596 43.0003 11.75 43.0003H45.75C46.4404 43.0003 47 42.4407 47 41.7503C47 41.0599 46.4404 40.5003 45.75 40.5003H30V14.4911C32.46 13.7421 34.25 11.4552 34.25 8.75031C34.25 8.69691 34.2493 8.64367 34.2479 8.59061L45.8936 6.29212L42.0689 17.3414C42.0506 17.3941 42.0361 17.4473 42.0252 17.5005H39.2499C38.5596 17.5005 38 18.0602 38 18.7505C38 23.8591 42.1414 28.0003 47.25 28.0003C52.3586 28.0003 56.5 23.8591 56.5 18.7505C56.5 18.0602 55.9404 17.5005 55.2501 17.5005H53.8054L48.9223 4.31616C48.739 3.82119 48.2645 3.49471 47.7367 3.50038C47.6563 3.50124 47.5774 3.50977 47.5007 3.52537C47.3428 3.49298 47.176 3.49079 47.0079 3.52396L33.6626 6.15791C32.6954 4.14212 30.6352 2.75031 28.25 2.75031C28.0794 2.75031 27.9104 2.75743 27.7434 2.77139C27.6166 2.42905 27.4653 2.06242 27.3387 1.76326C27.2207 1.48424 27.1084 1.2276 27.0257 1.04102C26.9844 0.947562 26.9502 0.871262 26.9263 0.818028L26.8984 0.756118L26.888 0.733052ZM28.25 12.2503C30.183 12.2503 31.75 10.6833 31.75 8.75031C31.75 6.81731 30.183 5.25031 28.25 5.25031C26.317 5.25031 24.75 6.81731 24.75 8.75031C24.75 10.6833 26.317 12.2503 28.25 12.2503ZM47.7899 8.45674L51.1394 17.5005H44.6593L47.7899 8.45674ZM14.2274 27.0004C14.2426 27.0007 14.2578 27.0007 14.2731 27.0004H15.8845C15.2983 30.1311 12.5509 32.5003 9.25 32.5003C5.94914 32.5003 3.2017 30.1311 2.61551 27.0004H14.2274ZM12.4542 24.5005L9.28987 15.9567L6.33242 24.5005H12.4542ZM40.6155 20.0004C41.2017 23.1311 43.9491 25.5003 47.25 25.5003C50.5509 25.5003 53.2983 23.1311 53.8845 20.0004H40.6155Z" fill="#197E84"/>
</svg>
