<svg width="62" height="50" fill="none" xmlns="http://www.w3.org/2000/svg"><mask id="a" maskUnits="userSpaceOnUse" x="0" y="0" width="62" height="50" fill="#000"><path fill="#fff" d="M0 0h62v50H0z"/><path fill-rule="evenodd" clip-rule="evenodd" d="M59.11 40.987c-.035-.007-.076-.016-.127-.024V28.682 5.43c0-2.806-1.612-4.43-4.407-4.43H7.458c-2.85 0-4.456 1.6-4.455 4.443V41.009H2.23c-.862.01-1.218.357-1.224 1.209-.007.77-.007 1.54 0 2.312v.2c0 .288 0 .578.045.86.338 2.074 1.978 3.402 4.202 3.402 8.217.002 16.435.001 24.652.001H42.83c4.7.002 9.4.002 14.1-.005 2.3-.004 4.027-1.74 4.05-4.032.002-.258-.002-.516-.005-.774-.007-.45-.013-.901.012-1.35.09-1.607-.378-1.95-1.744-1.828-.037.003-.075-.005-.134-.017zM57 40.47v.538h-.737l-3.968.002c-3.968.001-7.935.003-11.903-.009-.565-.002-1.046.114-1.37.578-.862 1.228-2.024 1.508-3.49 1.465-2.724-.08-5.452-.06-8.18-.04-.793.005-1.586.011-2.38.015-.408 0-.74-.075-.974-.412-.953-1.369-2.257-1.668-3.885-1.633-3.458.073-6.917.06-10.377.047-1.353-.006-2.705-.01-4.057-.01H4.98V28.616 5.241c0-1.477.793-2.261 2.287-2.261h47.427c1.531 0 2.304.768 2.304 2.301C57 17.012 57 28.741 57 40.47zM2.988 43.724c.004-.24.008-.485.008-.735l13.02.001 1.288-.002c1.257-.004 2.514-.007 3.772.018.291.007.688.144.849.361 1.015 1.376 2.332 1.716 4.012 1.662 3.037-.097 6.08-.072 9.12-.047h.001c.833.007 1.665.014 2.498.018.587.002 1.083-.117 1.423-.599.85-1.206 1.987-1.472 3.435-1.447 3.794.064 7.59.054 11.386.043 1.432-.004 2.863-.008 4.295-.008h.846c0 .265.01.528.02.79.02.58.04 1.15-.045 1.703-.151.988-1.007 1.528-2.134 1.528H36.348c-10.37 0-20.738 0-31.107-.013-.42 0-.877-.095-1.255-.274a1.696 1.696 0 01-.978-1.436c-.038-.512-.03-1.027-.02-1.563zm5.317-4.736h22.687l22.686-.001c.952 0 1.303-.336 1.303-1.256V6.288c0-.948-.333-1.286-1.271-1.286H8.274c-.933 0-1.271.343-1.271 1.287C7 16.75 7 27.21 7 37.67c0 .984.335 1.32 1.305 1.32zM52.96 7.023v29.963H9.024V7.023H52.96zm-39.978 8.44a.5.5 0 01-.5.5h-.917a.505.505 0 01-.504-.5c-.004-.3-.01-.598-.017-.896-.025-1.059-.049-2.112.055-3.152.139-1.394 1.391-2.392 2.78-2.401 2.621-.018 5.242-.014 7.862-.01l3.006.004c.124 0 .204.135.204.259v1.216a.5.5 0 01-.5.5H14.345c-1.05 0-1.36.319-1.362 1.387v3.092zm15.461-4.508a.5.5 0 00.5-.5V9.55a.5.5 0 00-.5-.5h-.903a.5.5 0 00-.5.5v.904a.5.5 0 00.5.5h.903z"/></mask><path fill-rule="evenodd" clip-rule="evenodd" d="M59.11 40.987c-.035-.007-.076-.016-.127-.024V28.682 5.43c0-2.806-1.612-4.43-4.407-4.43H7.458c-2.85 0-4.456 1.6-4.455 4.443V41.009H2.23c-.862.01-1.218.357-1.224 1.209-.007.77-.007 1.54 0 2.312v.2c0 .288 0 .578.045.86.338 2.074 1.978 3.402 4.202 3.402 8.217.002 16.435.001 24.652.001H42.83c4.7.002 9.4.002 14.1-.005 2.3-.004 4.027-1.74 4.05-4.032.002-.258-.002-.516-.005-.774-.007-.45-.013-.901.012-1.35.09-1.607-.378-1.95-1.744-1.828-.037.003-.075-.005-.134-.017zM57 40.47v.538h-.737l-3.968.002c-3.968.001-7.935.003-11.903-.009-.565-.002-1.046.114-1.37.578-.862 1.228-2.024 1.508-3.49 1.465-2.724-.08-5.452-.06-8.18-.04-.793.005-1.586.011-2.38.015-.408 0-.74-.075-.974-.412-.953-1.369-2.257-1.668-3.885-1.633-3.458.073-6.917.06-10.377.047-1.353-.006-2.705-.01-4.057-.01H4.98V28.616 5.241c0-1.477.793-2.261 2.287-2.261h47.427c1.531 0 2.304.768 2.304 2.301C57 17.012 57 28.741 57 40.47zM2.988 43.724c.004-.24.008-.485.008-.735l13.02.001 1.288-.002c1.257-.004 2.514-.007 3.772.018.291.007.688.144.849.361 1.015 1.376 2.332 1.716 4.012 1.662 3.037-.097 6.08-.072 9.12-.047h.001c.833.007 1.665.014 2.498.018.587.002 1.083-.117 1.423-.599.85-1.206 1.987-1.472 3.435-1.447 3.794.064 7.59.054 11.386.043 1.432-.004 2.863-.008 4.295-.008h.846c0 .265.01.528.02.79.02.58.04 1.15-.045 1.703-.151.988-1.007 1.528-2.134 1.528H36.348c-10.37 0-20.738 0-31.107-.013-.42 0-.877-.095-1.255-.274a1.696 1.696 0 01-.978-1.436c-.038-.512-.03-1.027-.02-1.563zm5.317-4.736h22.687l22.686-.001c.952 0 1.303-.336 1.303-1.256V6.288c0-.948-.333-1.286-1.271-1.286H8.274c-.933 0-1.271.343-1.271 1.287C7 16.75 7 27.21 7 37.67c0 .984.335 1.32 1.305 1.32zM52.96 7.023v29.963H9.024V7.023H52.96zm-39.978 8.44a.5.5 0 01-.5.5h-.917a.505.505 0 01-.504-.5c-.004-.3-.01-.598-.017-.896-.025-1.059-.049-2.112.055-3.152.139-1.394 1.391-2.392 2.78-2.401 2.621-.018 5.242-.014 7.862-.01l3.006.004c.124 0 .204.135.204.259v1.216a.5.5 0 01-.5.5H14.345c-1.05 0-1.36.319-1.362 1.387v3.092zm15.461-4.508a.5.5 0 00.5-.5V9.55a.5.5 0 00-.5-.5h-.903a.5.5 0 00-.5.5v.904a.5.5 0 00.5.5h.903z" fill="#197E84"/><path d="M58.983 40.963h-.2v.169l.166.028.034-.197zm.126.024l.041-.196-.04.196zm-.125-.679l.2.001v-.001h-.2zm0-11.626h-.2.2zm0 0h.2-.2zm0-23.252h.2-.2zm-55.98.013h.2-.2zm0 35.566v.2h.2v-.2h-.2zm-.312 0l-.001.2v-.2zm-.463 0l-.002-.2.002.2zm-1.224 1.209l.2.001-.2-.002zm0 2.312l.2-.001-.2.001zm0 .2h.2-.2zm.045.86l-.198.032.198-.032zm4.202 3.402v-.2.2zm24.652.001v-.2.2zm8.217 0v-.2.2zm4.703 0v.2-.2zm.006 0v-.2.2zm14.1-.005v.2-.2zm4.05-4.032l.2.002-.2-.002zm-.005-.774l-.2.003.2-.003zm.012-1.35l.2.01-.2-.01zm-1.744-1.828l.017.2-.017-.2zM57 41.007v.2h.2v-.2H57zm-.737 0v.2-.2zm-3.968.002v.2-.2zM40.392 41l-.001.2V41zm-1.37.578l.163.114-.163-.114zm-3.49 1.465l.006-.2-.006.2zm-8.18-.04v-.2.2zm-2.38.015l.001.2v-.2zm-.974-.412l.165-.114-.165.114zm-3.885-1.633l.004.2-.004-.2zm-10.377.047l.001-.2v.2zm0 0l-.001.2v-.2zm-4.756-.01h-.2v.2h.2v-.2zm0-.706h.2-.2zm0-11.687h-.2.2zm0 0h.2-.2zm0-23.375h.2-.2zm2.287-2.261v.2-.2zm47.427 0v.2-.2zm2.304 2.301h-.2.2zM2.996 42.99v-.2h-.2v.2h.2zm-.008.735l.2.003-.2-.003zm13.028-.734v.2-.2zm1.288-.002v-.2.2zm3.772.018l.004-.2-.004.2zm.849.361l.16-.119-.16.119zm4.012 1.662l-.007-.2.007.2zm9.12-.047l-.001.2h.002v-.2zm.002 0l.001-.2h-.002v.2zm2.497.018l-.002.2.002-.2zm1.423-.599l.163.116-.163-.116zm3.435-1.447l-.004.2.004-.2zm11.386.043v-.2.2zm0 0v.2-.2zm5.141-.008h.2v-.2h-.2v.2zm.02.79h.2l-.001-.008-.2.007zm0 0h-.201v.006l.2-.007zm-.045 1.703l-.197-.03.197.03zm-2.134 1.528v-.2.2zm-10.662 0v-.2.2zm0 0v.2-.2zm-5.331 0v-.2.2zm-4.441 0v-.2.2zM5.24 46.997v-.2.2zm-1.255-.274l-.086.18.086-.18zm-.978-1.436l-.2.014.2-.014zm50.67-6.3v-.2.2zm1.303-1.256h-.2.2zm0-31.443h-.2.2zM53.71 5.002v.2-.2zm-45.436 0v.2-.2zM7.003 6.289h.2-.2zM52.96 36.986v.2h.2v-.2h-.2zm0-29.963h.2v-.2h-.2v.2zM9.024 36.986h-.2v.2h.2v-.2zm0-29.963v-.2h-.2v.2h.2zm3.958 8.44h.2-.2zm-1.92 0l.2-.003-.2.002zm-.018-.896h-.2v.005l.2-.005zm0 0h.2v-.004l-.2.004zm.055-3.152l.199.02-.2-.02zm2.78-2.401l.002.2-.001-.2zm7.862-.01v.2-.2zm0 0v-.2.2zm3.006.004v.2-.2zM12.982 12.37h-.2.2zm0 2.366h.2-.2zm0 0h-.2.2zM58.949 41.16c.048.008.086.016.12.023l.081-.392c-.034-.007-.078-.016-.134-.025l-.067.394zm-.165-.853c-.002.206-.002.412-.002.656h.4c0-.245 0-.45.002-.654l-.4-.002zm0-11.625v11.626h.4V28.682h-.4zm0 0h.4-.4zm0 0h.4-.4zm0-23.252v23.252h.4V5.43h-.4zM54.576 1.2c1.359 0 2.404.394 3.11 1.104.706.71 1.098 1.761 1.098 3.126h.4c0-1.44-.415-2.605-1.214-3.408C57.17 1.218 56.012.8 54.576.8v.4zm-47.118 0h47.118V.8H7.458v.4zM3.203 5.443c0-1.385.39-2.438 1.1-3.146C5.012 1.59 6.068 1.2 7.457 1.2V.8c-1.462 0-2.633.411-3.438 1.214-.805.803-1.217 1.97-1.217 3.429h.4zm0 34.751V5.443h-.4v34.751h.4zm0 .815v-.815h-.4v.815h.4zm-.512.2h.312v-.4h-.31l-.002.4zm-.46 0h.46l.001-.4h-.465l.005.4zm-1.026 1.01c.003-.404.09-.639.231-.779.143-.14.384-.226.796-.23l-.005-.4c-.451.004-.82.097-1.071.345-.253.25-.348.614-.351 1.061l.4.003zm0 2.31c-.007-.77-.007-1.54 0-2.31l-.4-.003c-.007.772-.007 1.544 0 2.316l.4-.003zm0 .202v-.202l-.4.003v.198h.4zm.042.826a5.137 5.137 0 01-.042-.826l-.4-.001c0 .285-.001.591.047.892l.395-.065zm4.005 3.235c-2.134 0-3.684-1.265-4.005-3.235l-.395.065c.356 2.18 2.087 3.57 4.4 3.57v-.4zm24.652.001l-24.652-.001v.4c8.217.002 16.435.001 24.652.001v-.4zm8.217 0h-8.217v.4h8.217v-.4zm4.703 0H38.12v.4h4.703v-.4zm.006 0h-.006v.4h.006v-.4zm14.1-.005c-4.7.008-9.4.007-14.1.006v.4c4.7 0 9.4.002 14.1-.006v-.4zm3.85-3.834c-.022 2.184-1.662 3.83-3.85 3.834v.4c2.41-.004 4.226-1.829 4.25-4.23l-.4-.004zm-.005-.769c.003.259.007.514.005.77l.4.003c.002-.26-.002-.52-.005-.778l-.4.005zm.013-1.365c-.026.457-.02.915-.013 1.365l.4-.005c-.007-.453-.013-.897.012-1.338l-.4-.022zm-1.527-1.617c.685-.061 1.055.008 1.26.209.207.203.312.605.267 1.408l.399.022c.045-.803-.04-1.376-.386-1.716-.348-.34-.895-.382-1.576-.321l.036.398zm-.193-.02c.05.01.12.027.192.02l-.034-.398-.013-.002a1.051 1.051 0 01-.063-.012l-.081.392zm-1.868-.176v-.538h-.4v.538h.4zm-.936.2H57v-.4h-.738l.002.4zm-3.968.002l3.967-.001v-.4h-3.968v.4zM40.39 41.2c3.968.012 7.937.01 11.905.009v-.4c-3.969.001-7.936.003-11.904-.009l-.001.4zm-1.205.492c.268-.383.666-.494 1.205-.492l.002-.4c-.59-.002-1.155.12-1.535.663l.328.23zm-3.66 1.55c.745.023 1.432-.036 2.048-.267.62-.233 1.159-.637 1.611-1.282l-.327-.23c-.409.582-.882.934-1.425 1.137-.547.205-1.174.264-1.895.243l-.012.4zm-8.172-.04c2.728-.02 5.452-.04 8.172.04l.012-.4c-2.729-.08-5.46-.06-8.187-.04l.003.4zm-2.38.016c.793-.004 1.587-.01 2.38-.016l-.003-.4c-.793.006-1.586.012-2.38.016l.002.4zm-1.14-.498c.29.417.706.499 1.14.498l-.002-.4c-.384 0-.631-.07-.81-.326l-.328.228zm-3.717-1.547c.803-.017 1.507.048 2.122.277.61.227 1.141.618 1.595 1.27l.328-.229c-.499-.716-1.096-1.16-1.784-1.416-.682-.254-1.445-.32-2.27-.302l.01.4zm-10.381.046c3.458.014 6.92.027 10.381-.046l-.008-.4c-3.455.073-6.912.06-10.372.046l-.001.4zm0 0v-.4.4zm0 0v-.4.4zm0 0v-.4.4zm-4.057-.01c1.352 0 2.704.005 4.056.01l.002-.4c-1.353-.005-2.705-.01-4.058-.01v.4zm-.699 0h.7v-.4h-.7v.4zm-.2-.905v.705h.4v-.705h-.4zm0-11.687v11.687h.4V28.617h-.4zm0 0h.4-.4zm0 0h.4-.4zm0-23.375v23.374h.4V5.242h-.4zm2.487-2.461c-.78 0-1.41.205-1.844.634-.435.43-.643 1.054-.643 1.827h.4c0-.704.189-1.21.524-1.542.336-.332.85-.52 1.563-.52v-.4zm47.427 0H7.267v.4h47.427v-.4zm2.504 2.501c0-.798-.201-1.433-.637-1.867-.435-.434-1.07-.634-1.867-.634v.4c.735 0 1.25.184 1.585.517.334.333.519.849.519 1.584h.4zM57.2 40.47c0-11.729 0-23.458-.002-35.187h-.4c.002 11.73.002 23.459.002 35.188h.4zM2.796 42.99c0 .248-.004.491-.008.731l.4.007c.004-.24.008-.486.008-.738h-.4zm13.22-.199l-13.02-.001v.4l13.02.001v-.4zm1.287-.002l-1.287.002v.4l1.288-.002v-.4zm3.777.018c-1.26-.025-2.52-.021-3.777-.018l.001.4c1.258-.004 2.513-.007 3.768.018l.008-.4zm1.005.442a1.064 1.064 0 00-.461-.326 1.611 1.611 0 00-.544-.116l-.009.4c.12.003.268.033.404.087a.68.68 0 01.289.193l.321-.238zm3.845 1.58c-.826.027-1.546-.044-2.178-.281-.628-.236-1.18-.64-1.666-1.299l-.322.238c.53.717 1.143 1.17 1.848 1.435.7.263 1.478.335 2.331.307l-.013-.4zm9.13-.046c-3.041-.025-6.088-.05-9.13.047l.013.4c3.033-.097 6.07-.072 9.113-.047l.003-.4zm-.002 0v.4-.4zm0 0v.4-.4zm2.498.018l-2.496-.018-.003.4c.832.007 1.665.014 2.497.018l.002-.4zm1.26-.514c-.285.403-.698.516-1.26.514l-.001.4c.613.002 1.191-.122 1.587-.683l-.326-.231zm3.601-1.532c-.734-.013-1.41.048-2.015.275-.61.229-1.139.622-1.586 1.257l.327.23c.402-.57.867-.913 1.4-1.113.537-.201 1.155-.262 1.867-.25l.007-.4zm11.383.043c-3.797.01-7.59.021-11.383-.043l-.007.4c3.797.064 7.595.054 11.39.043v-.4zm0 0v.4-.4zm0 0v.4-.4zm4.295-.008c-1.432 0-2.864.004-4.295.008v.4c1.433-.004 2.864-.008 4.295-.008v-.4zm.846 0h-.846v.4h.846v-.4zm.219.982c-.01-.261-.019-.521-.019-.782h-.4c0 .27.01.536.02.797l.399-.015zm0 .007h-.4.4zm-.046 1.734c.089-.575.067-1.164.046-1.74l-.4.014c.021.584.04 1.134-.041 1.665l.395.061zm-2.332 1.698c.594 0 1.132-.142 1.547-.43.418-.289.7-.719.785-1.268l-.396-.06a1.441 1.441 0 01-.617 1c-.332.23-.785.358-1.319.358v.4zm-10.662 0h10.663v-.4H46.12v.4zm0 0v-.4.4zm0 0v-.4.4zm-5.331 0h5.331v-.4H40.79v.4zm-4.441 0h4.44v-.4h-4.44v.4zM5.24 47.197c10.369.013 20.738.013 31.107.013v-.4c-10.37 0-20.738 0-31.107-.013v.4zm-1.34-.293c.407.192.892.293 1.34.293v-.4c-.394 0-.82-.09-1.17-.255l-.17.362zm-1.092-1.602c.054.704.45 1.297 1.091 1.602l.172-.362a1.496 1.496 0 01-.864-1.27l-.4.03zm-.021-1.582c-.01.535-.018 1.06.02 1.581l.4-.03c-.038-.5-.03-1.006-.02-1.544l-.4-.007zm28.204-4.932H8.305v.4h22.687v-.4zm22.686-.001l-22.686.001v.4l22.686-.001v-.4zm1.103-1.056c0 .443-.086.688-.233.829-.15.143-.408.227-.87.227v.4c.49 0 .883-.084 1.147-.339.267-.256.356-.64.356-1.117h-.4zm0-31.443V37.73h.4V6.288h-.4zM53.71 5.202c.454 0 .702.084.845.228.143.145.226.398.226.858h.4c0-.488-.084-.878-.342-1.14-.258-.26-.646-.346-1.13-.346v.4zm-45.436 0H53.71v-.4H8.274v.4zM7.203 6.289c0-.457.084-.711.228-.857.143-.145.392-.23.843-.23v-.4c-.482 0-.869.087-1.128.349-.258.262-.343.652-.343 1.138h.4zM7.2 37.67c0-10.46 0-20.92.003-31.38h-.4C6.8 16.75 6.8 27.21 6.8 37.67h.4zm1.105 1.12c-.472 0-.728-.085-.874-.232-.147-.148-.23-.408-.23-.887h-.4c0 .503.083.903.346 1.168.263.266.66.35 1.158.35v-.4zm44.855-1.803V7.023h-.4v29.963h.4zm-44.136.2H52.96v-.4H9.024v.4zm-.2-30.163v29.963h.4V7.023h-.4zm44.136-.2H9.024v.4H52.96v-.4zm-40.478 9.34a.7.7 0 00.7-.7h-.4a.3.3 0 01-.3.3v.4zm-.917 0h.917v-.4h-.917v.4zm-.704-.698a.706.706 0 00.704.697v-.4a.306.306 0 01-.304-.303l-.4.006zm-.017-.893c.007.298.013.595.017.893l.4-.005c-.004-.3-.01-.6-.017-.897l-.4.009zm0-.005h.4-.4zm.056-3.171c-.105 1.054-.08 2.119-.056 3.176l.4-.01c-.025-1.06-.048-2.101.054-3.127l-.398-.04zm2.979-2.582c-1.479.01-2.829 1.072-2.98 2.582l.399.04c.127-1.28 1.281-2.214 2.583-2.222l-.002-.4zm7.863-.01c-2.62-.004-5.242-.008-7.864.01l.003.4c2.62-.018 5.24-.014 7.86-.01v-.4zm0 0v.4-.4zm3.005.004c-1.001 0-2.003-.002-3.005-.004v.4l3.005.004v-.4zm.404.459a.509.509 0 00-.093-.293.383.383 0 00-.31-.166v.4a.035.035 0 01-.018-.005l.004.005a.113.113 0 01.018.06h.4zm0 1.216V9.268h-.4v1.216h.4zm-.7.7a.7.7 0 00.7-.7h-.4a.3.3 0 01-.3.3v.4zm-.177 0h.177v-.4h-.177v.4zm-9.93 0h9.93v-.4h-9.93v.4zm-1.162 1.187c0-.529.081-.802.23-.954.148-.15.413-.232.931-.232v-.4c-.531 0-.946.077-1.216.352-.27.274-.344.694-.345 1.234h.4zm0 2.366V12.37h-.4v2.366h.4zm0 0h-.4.4zm0 .726v-.726h-.4v.726h.4zm15.561-5.007a.3.3 0 01-.3.3v.4a.7.7 0 00.7-.7h-.4zm0-.904v.904h.4V9.55h-.4zm-.3-.3a.3.3 0 01.3.3h.4a.7.7 0 00-.7-.7v.4zm-.903 0h.903v-.4h-.903v.4zm-.3.3a.3.3 0 01.3-.3v-.4a.7.7 0 00-.7.7h.4zm0 .904V9.55h-.4v.904h.4zm.3.3a.3.3 0 01-.3-.3h-.4a.7.7 0 00.7.7v-.4zm.903 0h-.903v.4h.903v-.4z" fill="#197E84" mask="url(#a)"/></svg>