<svg width="50" height="55" viewBox="0 0 50 55" fill="none" xmlns="http://www.w3.org/2000/svg">
<path fill-rule="evenodd" clip-rule="evenodd" d="M18.75 3.25C18.75 1.45507 20.2051 0 22 0H29C30.7949 0 32.25 1.45507 32.25 3.25V3.375C32.25 5.10089 30.8509 6.5 29.125 6.5C28.7798 6.5 28.5 6.77982 28.5 7.125V8.15278C32.1416 8.57039 35.5434 9.82788 38.4954 11.725L39.5861 10.5806C40.9767 9.12167 43.2867 9.06621 44.7456 10.4568C46.2046 11.8473 46.26 14.1573 44.8695 15.6162L43.9568 16.5738C47.255 20.5728 49.25 25.682 49.25 31.25C49.25 44.0906 38.8406 54.5 26 54.5C19.3378 54.5 13.3284 51.6963 9.09107 47.2079C8.61715 46.7059 8.63991 45.9147 9.1419 45.4408C9.64389 44.9669 10.435 44.9897 10.9089 45.4917C14.6937 49.5006 20.054 52 26 52C37.4599 52 46.75 42.7099 46.75 31.25C46.75 25.9163 44.6968 21.0507 41.3387 17.3698C40.9399 16.9327 40.9095 16.2895 41.2301 15.8216L41.2249 15.8166L41.2604 15.7794C41.307 15.7171 41.3601 15.6583 41.4197 15.6039C41.4348 15.5901 41.4502 15.5768 41.4658 15.5639L43.0598 13.8914C43.4977 13.4319 43.4803 12.7044 43.0208 12.2664C42.5613 11.8285 41.8338 11.846 41.3958 12.3055L39.6218 14.1668C39.2062 14.6525 38.481 14.7496 37.9495 14.3724C34.8584 12.179 31.1552 10.7987 27.17 10.5431C26.4925 10.4997 25.9758 9.92426 26.0008 9.25H26V7.125C26 5.39911 27.3991 4 29.125 4C29.4702 4 29.75 3.72018 29.75 3.375V3.25C29.75 2.83579 29.4142 2.5 29 2.5H22C21.5858 2.5 21.25 2.83579 21.25 3.25V3.5C21.25 3.77614 21.4739 4 21.75 4C23.4069 4 24.75 5.34315 24.75 7V9.25H24.7396L24.7409 9.26068C24.824 9.94601 24.3358 10.569 23.6505 10.6521C19.0401 11.2113 14.8619 13.2798 11.6549 16.3522C11.1564 16.8297 10.3651 16.8128 9.88755 16.3143C9.40997 15.8158 9.42694 15.0245 9.92545 14.5469C13.2529 11.3591 17.521 9.13364 22.25 8.33025V7C22.25 6.72386 22.0261 6.5 21.75 6.5C20.0931 6.5 18.75 5.15685 18.75 3.5V3.25ZM26 16.5C21.956 16.5 18.2942 18.1258 15.6283 20.7624C15.1375 21.2478 14.346 21.2434 13.8606 20.7526C13.3751 20.2618 13.3795 19.4703 13.8703 18.9849C16.9851 15.9043 21.2714 14 26 14C35.5269 14 43.25 21.7231 43.25 31.25C43.25 40.7769 35.5269 48.5 26 48.5C21.1937 48.5 16.8446 46.5327 13.7179 43.3625C13.2332 42.871 13.2386 42.0796 13.7302 41.5948C14.2217 41.11 15.0131 41.1155 15.4979 41.607C18.174 44.3204 21.8897 46 26 46C34.1462 46 40.75 39.3962 40.75 31.25C40.75 23.1038 34.1462 16.5 26 16.5ZM26.5 35.25C28.9853 35.25 31 33.2353 31 30.75C31 29.8949 30.7615 29.0955 30.3474 28.4147L33.8215 24.896C34.3065 24.4047 34.3015 23.6133 33.8102 23.1282C33.319 22.6432 32.5275 22.6482 32.0425 23.1395L28.5064 26.721C27.9024 26.4196 27.221 26.25 26.5 26.25C24.0147 26.25 22 28.2647 22 30.75C22 33.2353 24.0147 35.25 26.5 35.25ZM1.25 22.25C0.559644 22.25 0 22.8096 0 23.5C0 24.1904 0.559644 24.75 1.25 24.75H10.75C11.4404 24.75 12 24.1904 12 23.5C12 22.8096 11.4404 22.25 10.75 22.25H1.25ZM4 30.5C4 29.8096 4.55964 29.25 5.25 29.25H14.75C15.4404 29.25 16 29.8096 16 30.5C16 31.1904 15.4404 31.75 14.75 31.75H5.25C4.55964 31.75 4 31.1904 4 30.5ZM1.25 36.25C0.559644 36.25 0 36.8096 0 37.5C0 38.1904 0.559644 38.75 1.25 38.75H10.75C11.4404 38.75 12 38.1904 12 37.5C12 36.8096 11.4404 36.25 10.75 36.25H1.25Z" fill="#197E84"/>
</svg>
