<svg width="21" height="22" viewBox="0 0 21 22" fill="none" xmlns="http://www.w3.org/2000/svg">
<path d="M2.48516 0C7.82734 0 13.1695 0 18.511 0C18.5988 0.0317392 18.6841 0.0742832 18.7744 0.0945422C20.0243 0.372766 20.9894 1.54847 20.992 2.87408C21.0023 8.29338 21.003 13.7127 20.992 19.1326C20.9888 20.6602 19.7344 21.9662 18.2754 21.9858C16.8487 22.0047 15.4219 21.9858 13.9959 21.9952C13.7667 21.9966 13.7034 21.9142 13.7041 21.6833C13.7112 19.2819 13.7124 16.8812 13.7053 14.4798C13.7047 14.2212 13.7912 14.1577 14.0243 14.1617C14.7531 14.1753 15.4833 14.1685 16.2121 14.1658C16.5595 14.1644 16.7447 14.0112 16.7861 13.6695C16.8803 12.8929 16.9726 12.1163 17.0475 11.3376C17.0972 10.8197 16.9055 10.6157 16.4058 10.6144C15.6014 10.6124 14.797 10.609 13.9926 10.6171C13.7944 10.6191 13.6995 10.5698 13.7034 10.3368C13.715 9.65276 13.6963 8.968 13.7112 8.28392C13.7292 7.44115 14.1753 6.98194 14.9804 6.96168C15.4413 6.9502 15.9029 6.96236 16.3638 6.95425C16.7467 6.9475 16.9571 6.75572 16.9655 6.36607C16.9804 5.69347 16.9759 5.01952 16.9668 4.34692C16.9623 4.0248 16.7951 3.78236 16.4846 3.78169C15.5317 3.77966 14.5627 3.70605 13.6292 3.858C11.5878 4.18957 10.3916 5.74817 10.3754 7.91588C10.3696 8.71274 10.3677 9.5096 10.378 10.3058C10.3813 10.5361 10.3173 10.6252 10.0875 10.6191C9.56201 10.6049 9.03651 10.6097 8.51101 10.6171C8.15723 10.6218 7.94419 10.8291 7.94096 11.2006C7.93386 12.0082 7.93709 12.8165 7.95645 13.6235C7.96549 13.9956 8.15723 14.1644 8.51295 14.1671C9.01714 14.1712 9.52199 14.1854 10.0249 14.1617C10.3154 14.1476 10.3845 14.2522 10.3825 14.544C10.3716 16.9001 10.3709 19.2562 10.38 21.613C10.3813 21.898 10.3225 22.002 10.0275 22C7.62463 21.9878 5.22178 21.9973 2.81893 21.9912C1.25146 21.9871 0.00096837 20.6723 0.00096837 19.0354C-0.00032279 13.683 -0.00032279 8.33119 0.00096837 2.97875C0.00225953 1.57143 0.943516 0.372091 2.25404 0.0911657C2.3341 0.0736079 2.40834 0.0310639 2.48516 0Z" fill="white"/>
</svg>
