<svg width="31" height="30" viewBox="0 0 31 30" fill="none" xmlns="http://www.w3.org/2000/svg">
<path fill-rule="evenodd" clip-rule="evenodd" d="M14.5157 0.484421C14.4066 0.488062 14.2978 0.492898 14.1893 0.498918C13.8158 0.519644 13.5299 0.839206 13.5506 1.21268C13.5713 1.58615 13.8909 1.87211 14.2644 1.85138C14.3629 1.84592 14.4617 1.84152 14.5608 1.83821C14.66 1.83491 14.7589 1.8327 14.8576 1.83159C15.2316 1.82738 15.5314 1.52075 15.5272 1.14673C15.5229 0.772705 15.2163 0.472916 14.8423 0.47713C14.7337 0.478354 14.6248 0.480781 14.5157 0.484421ZM11.9281 2.19138C12.2919 2.10454 12.5165 1.73921 12.4296 1.37538C12.3428 1.01155 11.9775 0.787 11.6136 0.873833C11.4015 0.924472 11.1912 0.979747 10.9828 1.03954C10.6233 1.14272 10.4154 1.51783 10.5186 1.87736C10.6218 2.2369 10.9969 2.44472 11.3564 2.34153C11.5452 2.28735 11.7358 2.23727 11.9281 2.19138ZM17.4372 0.679525C17.0684 0.617137 16.7188 0.865539 16.6564 1.23435C16.5941 1.60316 16.8425 1.95271 17.2113 2.0151C17.4062 2.04807 17.5997 2.08534 17.7917 2.12682C18.1573 2.2058 18.5177 1.97344 18.5967 1.60783C18.6757 1.24222 18.4433 0.8818 18.0777 0.802815C17.8658 0.757041 17.6523 0.715909 17.4372 0.679525ZM20.5639 1.58069C20.2185 1.43723 19.8221 1.60097 19.6787 1.94641C19.5352 2.29185 19.699 2.68819 20.0444 2.83165C20.2266 2.90731 20.4068 2.98697 20.5849 3.07051C20.9235 3.22939 21.3268 3.08368 21.4857 2.74505C21.6446 2.40642 21.4988 2.00311 21.1602 1.84423C20.9638 1.75207 20.765 1.66418 20.5639 1.58069ZM9.15569 3.19496C9.4908 3.02879 9.62776 2.62243 9.46159 2.28731C9.29543 1.9522 8.88906 1.81524 8.55395 1.98141C8.35891 2.07812 8.1664 2.17907 7.97655 2.28412C7.64926 2.46522 7.53076 2.87735 7.71186 3.20463C7.89295 3.53191 8.30508 3.65042 8.63236 3.46932C8.80446 3.3741 8.97893 3.2826 9.15569 3.19496ZM23.4088 3.15726C23.104 2.94049 22.6811 3.01189 22.4644 3.31672C22.2476 3.62156 22.319 4.0444 22.6238 4.26117C22.7845 4.37543 22.9425 4.49322 23.0978 4.61444C23.3927 4.8446 23.8183 4.79216 24.0485 4.49731C24.2786 4.20246 24.2262 3.77685 23.9313 3.54669C23.7602 3.41307 23.5859 3.28322 23.4088 3.15726ZM6.6773 4.79324C6.96701 4.55663 7.01006 4.12997 6.77345 3.84027C6.53685 3.55056 6.11019 3.50751 5.82048 3.74411C5.65213 3.8816 5.48696 4.02278 5.32508 4.1675C5.04622 4.41681 5.02227 4.84496 5.27158 5.12382C5.52088 5.40267 5.94904 5.42662 6.22789 5.17732C6.37475 5.04602 6.52459 4.91795 6.6773 4.79324ZM25.8326 5.32517C25.5833 5.04632 25.1551 5.02236 24.8763 5.27167C24.5974 5.52097 24.5735 5.94913 24.8228 6.22798C24.9541 6.37484 25.0821 6.52468 25.2069 6.67739C25.4435 6.9671 25.8701 7.01015 26.1598 6.77355C26.4495 6.53694 26.4926 6.11028 26.256 5.82058C26.1185 5.65223 25.9773 5.48705 25.8326 5.32517ZM4.61434 6.90226C4.84451 6.60741 4.79207 6.1818 4.49722 5.95164C4.20237 5.72147 3.77676 5.77391 3.54659 6.06876C3.41298 6.23993 3.28313 6.41415 3.15717 6.59129C2.9404 6.89612 3.0118 7.31897 3.31663 7.53573C3.62147 7.7525 4.04431 7.6811 4.26107 7.37627C4.37533 7.21558 4.49313 7.05754 4.61434 6.90226ZM27.716 7.97664C27.5349 7.64936 27.1227 7.53085 26.7955 7.71195C26.4682 7.89305 26.3497 8.30517 26.5308 8.63246C26.626 8.80455 26.7175 8.97903 26.8051 9.15578C26.9713 9.49089 27.3777 9.62785 27.7128 9.46168C28.0479 9.29552 28.1849 8.88915 28.0187 8.55404C27.922 8.359 27.821 8.1665 27.716 7.97664ZM3.07042 9.41523C3.2293 9.07661 3.08359 8.6733 2.74496 8.51442C2.40633 8.35554 2.00302 8.50125 1.84414 8.83988C1.75198 9.03631 1.66409 9.23512 1.58059 9.43617C1.43713 9.78161 1.60087 10.1779 1.94632 10.3214C2.29176 10.4649 2.68809 10.3011 2.83155 9.95568C2.90722 9.77348 2.98688 9.59329 3.07042 9.41523ZM28.9605 10.9829C28.8574 10.6233 28.4823 10.4155 28.1227 10.5187C27.7632 10.6219 27.5554 10.997 27.6586 11.3565C27.7127 11.5453 27.7628 11.7359 27.8087 11.9282C27.8956 12.292 28.2609 12.5166 28.6247 12.4297C28.9885 12.3429 29.2131 11.9776 29.1263 11.6137C29.0756 11.4016 29.0203 11.1912 28.9605 10.9829ZM2.12672 12.2084C2.20571 11.8428 1.97335 11.4824 1.60774 11.4034C1.24213 11.3244 0.881708 11.5568 0.802722 11.9224C0.756948 12.1343 0.715816 12.3478 0.679433 12.5629C0.617044 12.9317 0.865446 13.2813 1.23425 13.3436C1.60306 13.406 1.95262 13.1576 2.015 12.7888C2.04798 12.5939 2.08525 12.4004 2.12672 12.2084ZM1.8315 15.1425C1.82728 14.7685 1.52066 14.4687 1.14664 14.4729C0.772612 14.4772 0.472823 14.7838 0.477038 15.1578C0.478262 15.2664 0.480688 15.3753 0.484329 15.4844C0.487969 15.5935 0.492805 15.7023 0.498825 15.8108C0.519551 16.1843 0.839113 16.4702 1.21259 16.4495C1.58606 16.4288 1.87202 16.1092 1.85129 15.7357C1.84582 15.6372 1.84143 15.5384 1.83812 15.4393C1.83481 15.3401 1.83261 15.2412 1.8315 15.1425ZM29.5012 14.1894C29.4804 13.8159 29.1609 13.53 28.7874 13.5507C28.4139 13.5714 28.128 13.891 28.1487 14.2644C28.1542 14.363 28.1586 14.4618 28.1619 14.5609C28.1652 14.6601 28.1674 14.759 28.1685 14.8576C28.1727 15.2317 28.4793 15.5315 28.8534 15.5272C29.2274 15.523 29.5272 15.2164 29.523 14.8424C29.5217 14.7337 29.5193 14.6249 29.5157 14.5158C29.512 14.4067 29.5072 14.2979 29.5012 14.1894ZM2.19128 18.072C2.10445 17.7082 1.73911 17.4836 1.37529 17.5704C1.01146 17.6573 0.786907 18.0226 0.873741 18.3864C0.92438 18.5986 0.979655 18.8089 1.03945 19.0173C1.14263 19.3768 1.51774 19.5847 1.87727 19.4815C2.23681 19.3783 2.44462 19.0032 2.34144 18.6437C2.28726 18.4549 2.23717 18.2643 2.19128 18.072ZM29.3206 17.4373C29.383 17.0685 29.1346 16.7189 28.7657 16.6565C28.3969 16.5941 28.0474 16.8426 27.985 17.2114C27.952 17.4063 27.9147 17.5998 27.8733 17.7918C27.8233 18.0229 27.8979 18.252 28.0518 18.4092C28.091 18.4404 28.1299 18.4721 28.1683 18.5042C28.2349 18.5472 28.3102 18.5791 28.3923 18.5968C28.7579 18.6758 29.1183 18.4434 29.1973 18.0778C29.2431 17.8659 29.2842 17.6524 29.3206 17.4373ZM3.19487 20.8444C3.0287 20.5093 2.62233 20.3723 2.28722 20.5385C1.95211 20.7047 1.81515 21.111 1.98132 21.4461C2.07803 21.6412 2.17897 21.8337 2.28403 22.0235C2.46513 22.3508 2.87725 22.4693 3.20454 22.2882C3.53182 22.1071 3.65033 21.695 3.46923 21.3677C3.374 21.1956 3.28251 21.0212 3.19487 20.8444ZM4.79314 23.3228C4.55654 23.0331 4.12988 22.99 3.84017 23.2266C3.55047 23.4632 3.50742 23.8899 3.74402 24.1796C3.88151 24.348 4.02268 24.5131 4.16741 24.675C4.41672 24.9539 4.84487 24.9778 5.12372 24.7285C5.40258 24.4792 5.42653 24.0511 5.17723 23.7722C5.04593 23.6253 4.91786 23.4755 4.79314 23.3228ZM6.90216 25.3857C6.60731 25.1556 6.18171 25.208 5.95154 25.5029C5.72138 25.7977 5.77382 26.2233 6.06867 26.4535C6.23984 26.5871 6.41406 26.717 6.5912 26.8429C6.89603 27.0597 7.31887 26.9883 7.53564 26.6835C7.7524 26.3786 7.68101 25.9558 7.37618 25.739C7.21549 25.6248 7.05745 25.507 6.90216 25.3857ZM9.41514 26.9297C9.07651 26.7708 8.6732 26.9165 8.51432 27.2551C8.35544 27.5938 8.50116 27.9971 8.83979 28.156C9.03622 28.2481 9.23503 28.336 9.43608 28.4195C9.78152 28.563 10.1779 28.3992 10.3213 28.0538C10.4648 27.7083 10.301 27.312 9.95559 27.1685C9.77339 27.0929 9.5932 27.0132 9.41514 26.9297ZM19.0172 28.9606C19.3767 28.8575 19.5846 28.4824 19.4814 28.1228C19.3782 27.7633 19.0031 27.5555 18.6436 27.6586C18.4548 27.7128 18.2642 27.7629 18.0719 27.8088C17.7081 27.8956 17.4835 28.261 17.5704 28.6248C17.6572 28.9886 18.0225 29.2132 18.3863 29.1264C18.5985 29.0757 18.8088 29.0204 19.0172 28.9606ZM12.2083 27.8734C11.8427 27.7944 11.4823 28.0267 11.4033 28.3924C11.3243 28.758 11.5567 29.1184 11.9223 29.1974C12.1342 29.2431 12.3477 29.2843 12.5628 29.3207C12.9316 29.383 13.2812 29.1346 13.3436 28.7658C13.4059 28.397 13.1575 28.0475 12.7887 27.9851C12.5938 27.9521 12.4003 27.9148 12.2083 27.8734ZM15.1424 28.1686C14.7684 28.1728 14.4686 28.4794 14.4728 28.8535C14.4771 29.2275 14.7837 29.5273 15.1577 29.5231C15.2663 29.5218 15.3752 29.5194 15.4843 29.5158C15.5934 29.5121 15.7022 29.5073 15.8107 29.5013C16.1842 29.4805 16.4701 29.161 16.4494 28.7875C16.4287 28.414 16.1091 28.1281 15.7356 28.1488C15.6371 28.1543 15.5383 28.1587 15.4392 28.162C15.34 28.1653 15.2411 28.1675 15.1424 28.1686Z" fill="#41B7BE"/>
<path fill-rule="evenodd" clip-rule="evenodd" d="M24.0302 28.2446C26.6901 28.2446 28.8464 26.0883 28.8464 23.4284C28.8464 20.7685 26.6901 18.6122 24.0302 18.6122C21.3703 18.6122 19.2141 20.7685 19.2141 23.4284C19.2141 26.0883 21.3703 28.2446 24.0302 28.2446ZM24.0302 29.4486C27.3551 29.4486 30.0504 26.7533 30.0504 23.4284C30.0504 20.1035 27.3551 17.4082 24.0302 17.4082C20.7053 17.4082 18.01 20.1035 18.01 23.4284C18.01 26.7533 20.7053 29.4486 24.0302 29.4486Z" fill="#41B7BE"/>
<path fill-rule="evenodd" clip-rule="evenodd" d="M27.0877 21.6354C27.306 21.8861 27.2797 22.2664 27.0289 22.4847L23.6236 25.4496C23.3976 25.6463 23.0614 25.6469 22.8347 25.4511L20.902 23.7812C20.6504 23.5639 20.6226 23.1837 20.84 22.9321C21.0574 22.6805 21.4375 22.6528 21.6891 22.8701L23.2268 24.1986L26.2383 21.5766C26.4891 21.3583 26.8694 21.3846 27.0877 21.6354Z" fill="#41B7BE"/>
<path fill-rule="evenodd" clip-rule="evenodd" d="M20.8419 7.25C19.5924 5.79568 17.6584 4.65227 14.722 4.76521C11.8189 4.87687 10.1436 6.27508 9.1883 7.97311C8.21218 9.70817 7.9806 11.7806 8.07521 13.1525C8.09809 13.4842 7.84774 13.7717 7.51604 13.7945C7.18434 13.8174 6.8969 13.5671 6.87402 13.2354C6.76797 11.6975 7.018 9.3752 8.13892 7.38275C9.28067 5.35327 11.3178 3.69121 14.6757 3.56206C18.0003 3.43419 20.2805 4.74903 21.7552 6.46535C23.2098 8.15836 23.8647 10.2196 24.0263 11.6199C24.0644 11.9502 23.8275 12.2488 23.4972 12.2869C23.1669 12.3251 22.8683 12.0882 22.8301 11.7579C22.6907 10.5494 22.1115 8.72763 20.8419 7.25Z" fill="#41B7BE"/>
<path fill-rule="evenodd" clip-rule="evenodd" d="M12.2307 7.21893C13.2789 6.43278 14.4809 6.27075 15.301 6.27075C16.1157 6.27075 17.3603 6.43091 18.4614 7.06621C19.5942 7.71973 20.547 8.86417 20.7167 10.7314C20.8256 11.9286 21.2465 12.6084 21.6658 12.9892C22.0979 13.3817 22.5693 13.495 22.8263 13.495C23.1587 13.495 23.4283 13.7645 23.4283 14.097C23.4283 14.4295 23.1587 14.699 22.8263 14.699C22.2806 14.699 21.5177 14.4813 20.8562 13.8804C20.1818 13.2679 19.6496 12.2921 19.5176 10.8404C19.3864 9.39654 18.6836 8.5844 17.8598 8.10913C17.0044 7.61564 15.9913 7.47479 15.301 7.47479C14.616 7.47479 13.711 7.61378 12.9531 8.18217C12.2202 8.73189 11.532 9.75341 11.3878 11.7111C11.3857 12.6563 11.2447 14.0729 10.8105 15.2792C10.3887 16.4507 9.5733 17.7091 8.07675 17.7091C7.74427 17.7091 7.47473 17.4396 7.47473 17.1071C7.47473 16.7746 7.74427 16.5051 8.07675 16.5051C8.74748 16.5051 9.28661 15.9575 9.67759 14.8714C10.0526 13.8296 10.1838 12.5498 10.1838 11.6889V11.6675L10.1854 11.646C10.3456 9.40311 11.1602 8.02182 12.2307 7.21893Z" fill="#41B7BE"/>
<path fill-rule="evenodd" clip-rule="evenodd" d="M17.0641 10.0316C17.4638 10.6537 17.6487 11.4143 17.7053 11.9235L17.7064 11.9337L17.7072 11.9438C17.919 14.697 20.2748 15.9469 21.4565 16.2196C21.7805 16.2943 21.9825 16.6176 21.9077 16.9415C21.833 17.2655 21.5097 17.4675 21.1858 17.3928C19.7601 17.0638 16.7828 15.5472 16.5076 12.0471C16.4626 11.6537 16.3166 11.0956 16.0512 10.6825C15.7962 10.2857 15.5026 10.1085 15.0989 10.1758C14.8568 10.2161 14.7077 10.3083 14.6063 10.4129C14.4991 10.5235 14.4162 10.679 14.3626 10.8806C14.2515 11.298 14.2952 11.806 14.3799 12.145L14.3933 12.1985L14.3967 12.2535C14.4421 12.9796 14.6932 14.1929 15.303 15.3889C15.9103 16.58 16.8529 17.7161 18.2624 18.3666C18.5642 18.506 18.696 18.8636 18.5567 19.1655C18.4173 19.4674 18.0597 19.5992 17.7578 19.4599C16.0367 18.6655 14.9224 17.2932 14.2303 15.9358C13.5546 14.6105 13.2619 13.2633 13.1986 12.3824C13.0904 11.9176 13.026 11.2212 13.199 10.571C13.2909 10.2257 13.4563 9.86945 13.7417 9.57499C14.0329 9.27448 14.4206 9.06816 14.9009 8.9881C15.9421 8.81457 16.6518 9.3899 17.0641 10.0316Z" fill="#41B7BE"/>
<path fill-rule="evenodd" clip-rule="evenodd" d="M12.9739 17.1127C13.1835 17.1411 13.3629 17.2776 13.4462 17.4721C13.7519 18.1853 14.3937 18.8892 15.1274 19.495C15.8523 20.0935 16.6111 20.5508 17.0752 20.7829C17.3726 20.9316 17.4932 21.2932 17.3445 21.5906C17.1958 21.8879 16.8342 22.0085 16.5368 21.8598C15.9975 21.5902 15.161 21.0842 14.3608 20.4235C13.7814 19.9451 13.1904 19.3607 12.7518 18.7004C12.0524 19.3012 10.9132 20.0287 9.42676 20.4003C9.1042 20.481 8.77735 20.2849 8.69671 19.9623C8.61607 19.6397 8.81218 19.3129 9.13474 19.2322C10.923 18.7852 12.0969 17.7405 12.4228 17.3331C12.555 17.1679 12.7642 17.0842 12.9739 17.1127Z" fill="#41B7BE"/>
<path fill-rule="evenodd" clip-rule="evenodd" d="M11.3192 20.8461C11.5817 20.642 11.9599 20.6892 12.164 20.9517C12.4783 21.3558 13.0938 21.9877 13.8819 22.5138C14.6729 23.0419 15.5846 23.4284 16.505 23.4284C16.8375 23.4284 17.107 23.6979 17.107 24.0304C17.107 24.3629 16.8375 24.6324 16.505 24.6324C15.2581 24.6324 14.1129 24.1158 13.2133 23.5152C12.3107 22.9125 11.6017 22.1898 11.2136 21.6909C11.0095 21.4284 11.0568 21.0502 11.3192 20.8461Z" fill="#41B7BE"/>
<path fill-rule="evenodd" clip-rule="evenodd" d="M7.95208 21.4976C8.18719 21.2625 8.56837 21.2625 8.80347 21.4976C8.86771 21.5619 8.96334 21.6899 9.0921 21.8623C9.90087 22.945 12.0164 25.7772 15.8655 25.5366C16.1973 25.5159 16.4831 25.7681 16.5039 26.0999C16.5246 26.4317 16.2724 26.7176 15.9406 26.7383C13.3333 26.9013 11.3797 25.8368 10.0577 24.7152C9.39803 24.1554 8.89119 23.5783 8.53172 23.1253C8.35184 22.8986 8.20821 22.7021 8.10271 22.5567C8.09268 22.5428 8.08314 22.5297 8.07405 22.5171C8.03406 22.4619 8.00277 22.4188 7.97665 22.3838C7.9529 22.352 7.94276 22.3398 7.9422 22.3389C7.71703 22.1031 7.72032 21.7294 7.95208 21.4976Z" fill="#41B7BE"/>
<path d="M8.37775 15.0002C8.37775 15.3327 8.10821 15.6022 7.77573 15.6022C7.44324 15.6022 7.17371 15.3327 7.17371 15.0002C7.17371 14.6677 7.44324 14.3982 7.77573 14.3982C8.10821 14.3982 8.37775 14.6677 8.37775 15.0002Z" fill="#41B7BE"/>
<path d="M7.7757 20.4182C7.7757 20.7507 7.50616 21.0202 7.17368 21.0202C6.84119 21.0202 6.57166 20.7507 6.57166 20.4182C6.57166 20.0857 6.84119 19.8162 7.17368 19.8162C7.50616 19.8162 7.7757 20.0857 7.7757 20.4182Z" fill="#41B7BE"/>
</svg>
