<svg width="30" height="29" viewBox="0 0 30 29" fill="none" xmlns="http://www.w3.org/2000/svg">
<path fill-rule="evenodd" clip-rule="evenodd" d="M2.82426 0.175736C3.05858 0.410051 3.05858 0.78995 2.82426 1.02426L2.04856 1.79997L14.4 1.79997V1.814C14.5988 1.80468 14.7988 1.79997 15 1.79997C21.9588 1.79997 27.6 7.44118 27.6 14.4C27.6 19.4367 24.6446 23.7832 20.3734 25.8L27.9515 25.8L27.1758 25.0242C26.9414 24.7899 26.9414 24.41 27.1758 24.1757C27.4101 23.9414 27.79 23.9414 28.0243 24.1757L29.8243 25.9757C30.0586 26.21 30.0586 26.5899 29.8243 26.8242L28.0243 28.6242C27.79 28.8585 27.4101 28.8585 27.1758 28.6242C26.9414 28.3899 26.9414 28.01 27.1758 27.7757L27.9514 27H15V27C8.04119 27 2.39998 21.3588 2.39998 14.4C2.39998 9.36325 5.35527 5.01677 9.62644 2.99997L2.0485 2.99997L2.82426 3.77574C3.05858 4.01005 3.05858 4.38995 2.82426 4.62426C2.58995 4.85858 2.21005 4.85858 1.97574 4.62426L0.175736 2.82426C-0.0585787 2.58995 -0.0585787 2.21005 0.175736 1.97574L1.97574 0.175736C2.21005 -0.0585787 2.58995 -0.0585787 2.82426 0.175736ZM3.59998 14.4C3.59998 8.10392 8.70393 2.99997 15 2.99997C21.296 2.99997 26.4 8.10392 26.4 14.4C26.4 20.696 21.296 25.8 15 25.8C8.70393 25.8 3.59998 20.696 3.59998 14.4ZM6.00002 14.4C6.00002 9.42946 10.0295 5.40002 15 5.40002C19.9706 5.40002 24 9.42946 24 14.4C24 19.3706 19.9706 23.4 15 23.4C10.0295 23.4 6.00002 19.3706 6.00002 14.4ZM15 4.20002C9.36672 4.20002 4.80002 8.76672 4.80002 14.4C4.80002 20.0333 9.36672 24.6 15 24.6C20.6333 24.6 25.2 20.0333 25.2 14.4C25.2 8.76672 20.6333 4.20002 15 4.20002ZM14.3203 6.62916C14.5444 6.60979 14.7711 6.59992 15 6.59992C15.2289 6.59992 15.4556 6.60979 15.6797 6.62916C16.0098 6.65768 16.2543 6.94844 16.2258 7.27858C16.1973 7.60872 15.9065 7.85323 15.5764 7.8247C15.3866 7.8083 15.1943 7.79992 15 7.79992C14.8057 7.79992 14.6134 7.8083 14.4236 7.8247C14.0935 7.85323 13.8027 7.60872 13.7742 7.27858C13.7457 6.94844 13.9902 6.65768 14.3203 6.62916ZM17.5 7.61903C17.6402 7.3188 17.9973 7.1891 18.2975 7.32934C18.711 7.52249 19.1047 7.75077 19.4746 8.01029C19.7459 8.20059 19.8115 8.57477 19.6212 8.84605C19.4309 9.11733 19.0568 9.18298 18.7855 8.99268C18.4723 8.77298 18.1393 8.57987 17.7897 8.41658C17.4894 8.27633 17.3597 7.91926 17.5 7.61903ZM12.5 7.61903C12.6403 7.91926 12.5106 8.27633 12.2103 8.41658C11.8607 8.57987 11.5277 8.77298 11.2145 8.99268C10.9432 9.18298 10.5691 9.11733 10.3788 8.84605C10.1885 8.57477 10.2541 8.20059 10.5254 8.01029C10.8953 7.75077 11.289 7.52249 11.7025 7.32934C12.0027 7.1891 12.3598 7.3188 12.5 7.61903ZM20.5539 9.77868C20.8251 9.58838 21.1993 9.65403 21.3896 9.9253C21.6492 10.2953 21.8774 10.6889 22.0706 11.1024C22.2108 11.4026 22.0811 11.7597 21.7809 11.8999C21.4807 12.0402 21.1236 11.9105 20.9833 11.6102C20.82 11.2607 20.6269 10.9276 20.4072 10.6144C20.2169 10.3432 20.2826 9.96898 20.5539 9.77868ZM9.44613 9.77868C9.71741 9.96898 9.78306 10.3432 9.59276 10.6144C9.37306 10.9276 9.17995 11.2607 9.01666 11.6102C8.87642 11.9105 8.51934 12.0402 8.21911 11.8999C7.91888 11.7597 7.78918 11.4026 7.92942 11.1024C8.12257 10.6889 8.35085 10.2953 8.61037 9.92531C8.80067 9.65403 9.17485 9.58838 9.44613 9.77868ZM7.87866 13.1741C8.2088 13.2027 8.45331 13.4934 8.42478 13.8236C8.40838 14.0134 8.4 14.2056 8.4 14.3999C8.4 14.5943 8.40838 14.7865 8.42478 14.9763C8.45331 15.3064 8.2088 15.5972 7.87866 15.6257C7.54852 15.6542 7.25776 15.4097 7.22924 15.0796C7.20987 14.8555 7.2 14.6288 7.2 14.3999C7.2 14.1711 7.20987 13.9444 7.22924 13.7203C7.25776 13.3901 7.54852 13.1456 7.87866 13.1741ZM22.1213 13.1741C22.4515 13.1456 22.7422 13.3901 22.7708 13.7203C22.7901 13.9444 22.8 14.1711 22.8 14.3999C22.8 14.6288 22.7901 14.8555 22.7708 15.0796C22.7422 15.4097 22.4515 15.6542 22.1213 15.6257C21.7912 15.5972 21.5467 15.3064 21.5752 14.9763C21.5916 14.7865 21.6 14.5943 21.6 14.3999C21.6 14.2056 21.5916 14.0134 21.5752 13.8236C21.5467 13.4934 21.7912 13.2027 22.1213 13.1741ZM21.7809 16.8999C22.0811 17.0401 22.2108 17.3972 22.0706 17.6974C21.8774 18.1109 21.6492 18.5046 21.3896 18.8745C21.1993 19.1458 20.8251 19.2115 20.5539 19.0212C20.2826 18.8309 20.2169 18.4567 20.4072 18.1854C20.6269 17.8722 20.82 17.5392 20.9833 17.1896C21.1236 16.8894 21.4807 16.7597 21.7809 16.8999ZM8.21911 16.8999C8.51934 16.7597 8.87642 16.8894 9.01666 17.1896C9.17995 17.5392 9.37306 17.8722 9.59276 18.1854C9.78306 18.4567 9.71741 18.8309 9.44613 19.0212C9.17485 19.2115 8.80067 19.1458 8.61037 18.8745C8.35085 18.5046 8.12257 18.1109 7.92942 17.6974C7.78918 17.3972 7.91888 17.0401 8.21911 16.8999ZM10.3788 19.9538C10.5691 19.6825 10.9432 19.6169 11.2145 19.8072C11.5277 20.0269 11.8607 20.22 12.2103 20.3833C12.5106 20.5235 12.6403 20.8806 12.5 21.1808C12.3598 21.481 12.0027 21.6107 11.7025 21.4705C11.289 21.2774 10.8953 21.0491 10.5254 20.7896C10.2541 20.5993 10.1885 20.2251 10.3788 19.9538ZM19.6212 19.9538C19.8115 20.2251 19.7459 20.5993 19.4746 20.7896C19.1047 21.0491 18.711 21.2774 18.2975 21.4705C17.9973 21.6107 17.6402 21.481 17.5 21.1808C17.3597 20.8806 17.4894 20.5235 17.7897 20.3833C18.1393 20.22 18.4723 20.0269 18.7855 19.8072C19.0568 19.6169 19.4309 19.6825 19.6212 19.9538ZM13.7742 21.5213C13.8027 21.1911 14.0935 20.9466 14.4236 20.9751C14.6134 20.9915 14.8057 20.9999 15 20.9999C15.1943 20.9999 15.3866 20.9915 15.5764 20.9751C15.9065 20.9466 16.1973 21.1911 16.2258 21.5213C16.2543 21.8514 16.0098 22.1422 15.6797 22.1707C15.4556 22.19 15.2289 22.1999 15 22.1999C14.7711 22.1999 14.5444 22.19 14.3203 22.1707C13.9902 22.1422 13.7457 21.8514 13.7742 21.5213ZM16.2583 15.7054C16.4587 15.9095 16.5589 16.1693 16.5589 16.4847C16.5589 16.8224 16.4475 17.0933 16.2249 17.2974C16.0059 17.5015 15.6849 17.6035 15.2619 17.6035C14.8314 17.6035 14.4974 17.4755 14.2599 17.2194C14.0261 16.9634 13.9093 16.6016 13.9093 16.134H12.5566C12.5566 16.8688 12.7533 17.4588 13.1467 17.9041C13.5437 18.3494 14.1096 18.6129 14.8444 18.6945V19.7744H15.7295V18.689C16.416 18.6185 16.9504 18.3884 17.3326 17.9987C17.7185 17.6091 17.9115 17.1007 17.9115 16.4735C17.9115 16.1396 17.8614 15.8483 17.7612 15.5996C17.661 15.351 17.5181 15.132 17.3326 14.9428C17.147 14.7498 16.9188 14.5791 16.6479 14.4307C16.377 14.2822 16.0041 14.1208 15.5291 13.9464C15.0541 13.772 14.7164 13.5883 14.516 13.3953C14.3193 13.1986 14.221 12.9389 14.221 12.616C14.221 12.2561 14.3212 11.9796 14.5216 11.7866C14.7219 11.5937 15.0003 11.4972 15.3565 11.4972C15.7165 11.4972 16.0004 11.6326 16.2082 11.9035C16.4197 12.1707 16.5255 12.5381 16.5255 13.0057H17.8725C17.8725 12.2783 17.6963 11.6883 17.3437 11.2356C16.9912 10.7791 16.4921 10.5045 15.8464 10.4117V9.18712H14.9557V10.4006C14.3137 10.4748 13.8053 10.7105 13.4305 11.1075C13.0557 11.5046 12.8683 12.0111 12.8683 12.6272C12.8683 13.5363 13.3007 14.2229 14.1653 14.6867C14.4251 14.8277 14.7887 14.9817 15.2563 15.1487C15.7239 15.312 16.0579 15.4976 16.2583 15.7054Z" fill="#41B7BE"/>
</svg>
