<svg width="21" height="22" viewBox="0 0 21 22" fill="none" xmlns="http://www.w3.org/2000/svg">
<path d="M19.1954 22C13.3986 22 7.60174 22 1.8045 22C1.77451 21.9867 1.74534 21.9673 1.71411 21.9608C1.21368 21.8541 0.80693 21.5897 0.477831 21.1816C0.225152 20.8673 0.103126 20.4941 0 20.1092C0 14.0364 0 7.96356 0 1.89075C0.011915 1.86621 0.029582 1.84296 0.0349231 1.81713C0.258431 0.713724 1.08919 0.00122526 2.16565 0.000794744C7.72253 -0.000496794 13.279 -0.000496794 18.8359 0.00294731C19.0253 0.00294731 19.22 0.0231814 19.4029 0.0709683C20.3692 0.324971 20.9995 1.20451 20.9995 2.28854C21.0003 8.0953 20.9999 13.9025 20.9999 19.7092C20.9999 19.7738 21.0007 19.8384 20.997 19.9025C20.9613 20.5186 20.7152 21.027 20.2825 21.4425C19.9715 21.7408 19.5919 21.8872 19.1954 22ZM17.8387 18.6885C17.842 18.6248 17.8461 18.5826 17.8461 18.5408C17.8465 16.5075 17.8511 14.4738 17.8445 12.4405C17.8404 11.2531 17.388 10.269 16.5293 9.50738C15.406 8.51074 13.8246 8.18312 12.4265 9.21162C12.1138 9.44151 11.8492 9.74244 11.5559 10.0171C11.5559 9.63266 11.5559 9.23056 11.5559 8.82243C10.4901 8.82243 9.45061 8.82243 8.42099 8.82243C8.42099 12.1232 8.42099 15.4054 8.42099 18.6851C9.46828 18.6851 10.4983 18.6851 11.5526 18.6851C11.5526 18.5899 11.5526 18.506 11.5526 18.422C11.5526 16.6461 11.5522 14.8707 11.5534 13.0948C11.5534 12.9519 11.5575 12.8081 11.5707 12.6661C11.6586 11.7116 12.6713 11.0081 13.5424 11.294C14.2712 11.5334 14.6965 12.1542 14.6977 12.9967C14.7002 14.8083 14.6985 16.6199 14.6985 18.4315C14.6985 18.515 14.6985 18.5985 14.6985 18.6894C15.7573 18.6885 16.7878 18.6885 17.8387 18.6885ZM3.16773 8.81167C3.16773 12.1167 3.16773 15.3985 3.16773 18.6807C4.21584 18.6807 5.25039 18.6807 6.2874 18.6807C6.2874 15.383 6.2874 12.1012 6.2874 8.81167C5.24176 8.81167 4.21173 8.81167 3.16773 8.81167ZM6.6091 4.9504C6.6091 3.85819 5.75615 2.96358 4.72038 2.97004C3.6809 2.97693 2.8222 3.8823 2.83494 4.95944C2.84767 6.04907 3.68131 6.91828 4.71873 6.92344C5.76355 6.92904 6.6091 6.04692 6.6091 4.9504Z" fill="white"/>
</svg>
