<svg width="29" height="30" viewBox="0 0 29 30" fill="none" xmlns="http://www.w3.org/2000/svg">
<path fill-rule="evenodd" clip-rule="evenodd" d="M0 0.625C0 0.279822 0.279822 0 0.625 0H24.375C24.7202 0 25 0.279822 25 0.625V15.625C25 15.9702 24.7202 16.25 24.375 16.25C24.0298 16.25 23.75 15.9702 23.75 15.625V1.25H1.25V26.25H16.25C16.5952 26.25 16.875 26.5298 16.875 26.875C16.875 27.2202 16.5952 27.5 16.25 27.5H0.625C0.279822 27.5 0 27.2202 0 26.875V0.625ZM17.5 17.5C17.1548 17.5 16.875 17.7798 16.875 18.125C16.875 18.4702 17.1548 18.75 17.5 18.75H18.125V20.3125C18.125 20.5967 18.1857 21.019 18.3566 21.4494C18.526 21.8761 18.8207 22.3518 19.3166 22.6912L20.2495 23.4375L19.3152 24.1849C18.8296 24.5238 18.125 25.441 18.125 26.875V28.75H17.5C17.1548 28.75 16.875 29.0298 16.875 29.375C16.875 29.7202 17.1548 30 17.5 30H27.8125C28.1577 30 28.4375 29.7202 28.4375 29.375C28.4375 29.0298 28.1577 28.75 27.8125 28.75H27.5V27.1875C27.5 25.7535 26.7954 24.8363 26.3098 24.4974L25.3755 23.75L26.3084 23.0037C26.8043 22.6643 27.099 22.1886 27.2684 21.7619C27.4393 21.3315 27.5 20.9092 27.5 20.625V18.75H27.8125C28.1577 18.75 28.4375 18.4702 28.4375 18.125C28.4375 17.7798 28.1577 17.5 27.8125 17.5H18.75H17.5ZM19.375 18.75V20.3125C19.375 20.445 19.408 20.7102 19.5184 20.9881C19.6275 21.2629 19.7948 21.5079 20.0342 21.6675C20.0492 21.6775 20.0638 21.6882 20.0779 21.6995L21.6404 22.9495C21.7887 23.0681 21.875 23.2476 21.875 23.4375C21.875 23.6274 21.7887 23.8069 21.6404 23.9255L20.0779 25.1755C20.0638 25.1868 20.0492 25.1975 20.0342 25.2075C19.8952 25.3002 19.375 25.8344 19.375 26.875V28.75H20.9375C20.9375 28.3333 21.8125 26.25 22.8125 26.25C23.8125 26.25 24.6875 27.9167 24.6875 28.75H26.25V27.1875C26.25 26.1469 25.7298 25.6127 25.5908 25.52C25.5758 25.51 25.5612 25.4993 25.5471 25.488L23.9846 24.238C23.8363 24.1194 23.75 23.9399 23.75 23.75C23.75 23.5601 23.8363 23.3806 23.9846 23.262L25.5471 22.012C25.5612 22.0007 25.5758 21.99 25.5908 21.98C25.8302 21.8204 25.9975 21.5754 26.1066 21.3006C26.217 21.0227 26.25 20.7575 26.25 20.625V18.75H19.375ZM20.9375 20.625C20.9375 20.9375 21.8125 22.5 22.8125 22.5C23.8125 22.5 24.6875 21.25 24.6875 20.625H20.9375ZM5.625 5.625C5.27982 5.625 5 5.90482 5 6.25C5 6.59518 5.27982 6.875 5.625 6.875H19.0625C19.4077 6.875 19.6875 6.59518 19.6875 6.25C19.6875 5.90482 19.4077 5.625 19.0625 5.625H5.625ZM10 14.375C10 14.0298 10.2798 13.75 10.625 13.75L18.75 13.75C19.0952 13.75 19.375 14.0298 19.375 14.375C19.375 14.7202 19.0952 15 18.75 15L10.625 15C10.2798 15 10 14.7202 10 14.375ZM5.625 13.75C5.27982 13.75 5 14.0298 5 14.375C5 14.7202 5.27982 15 5.625 15H7.5C7.84518 15 8.125 14.7202 8.125 14.375C8.125 14.0298 7.84518 13.75 7.5 13.75H5.625ZM10 18.125C10 17.7798 10.2798 17.5 10.625 17.5H15C15.3452 17.5 15.625 17.7798 15.625 18.125C15.625 18.4702 15.3452 18.75 15 18.75H10.625C10.2798 18.75 10 18.4702 10 18.125ZM5.625 17.5C5.27982 17.5 5 17.7798 5 18.125C5 18.4702 5.27982 18.75 5.625 18.75H7.5C7.84518 18.75 8.125 18.4702 8.125 18.125C8.125 17.7798 7.84518 17.5 7.5 17.5H5.625ZM10 21.875C10 21.5298 10.2798 21.25 10.625 21.25H16.25C16.5952 21.25 16.875 21.5298 16.875 21.875C16.875 22.2202 16.5952 22.5 16.25 22.5H10.625C10.2798 22.5 10 22.2202 10 21.875ZM5.625 21.25C5.27982 21.25 5 21.5298 5 21.875C5 22.2202 5.27982 22.5 5.625 22.5H7.5C7.84518 22.5 8.125 22.2202 8.125 21.875C8.125 21.5298 7.84518 21.25 7.5 21.25H5.625Z" fill="#41B7BE"/>
</svg>
