<?xml version="1.0" encoding="utf-8"?>
<!-- Generator: Adobe Illustrator 16.0.0, SVG Export Plug-In . SVG Version: 6.00 Build 0)  -->
<!DOCTYPE svg PUBLIC "-//W3C//DTD SVG 1.1//EN" "http://www.w3.org/Graphics/SVG/1.1/DTD/svg11.dtd">
<svg version="1.1" id="Layer_1" xmlns="http://www.w3.org/2000/svg" xmlns:xlink="http://www.w3.org/1999/xlink" x="0px" y="0px"
	 width="1769.179px" height="227.356px" viewBox="0 0 1769.179 227.356" enable-background="new 0 0 1769.179 227.356"
	 xml:space="preserve">
<path fill="#090909" d="M435.317,184.54l19.487-19.782c8.859,22.146,34.546,36.907,64.957,36.907
	c26.28,0,46.949-10.334,47.242-35.136c0.296-28.639-26.574-38.973-54.623-49.604c-30.707-11.513-62.892-23.619-62.892-59.348
	C449.488,20.08,480.491,0,517.695,0c34.251,0,60.235,12.993,74.996,30.71L574.68,49.015c-10.038-15.058-28.935-25.688-56.395-25.688
	c-22.44,0-41.634,10.038-41.634,32.185c0,21.848,23.034,31.297,48.721,41.041c32.182,12.695,68.797,26.87,68.797,68.501
	c0,42.519-33.071,62.302-75.294,62.302C482.559,227.356,450.671,209.638,435.317,184.54"/>
<path fill="#090909" d="M860.17,178.045H746.788l-18.011,46.356h-29.231L788.421,2.955h30.118l88.873,221.447h-29.229
	L860.17,178.045z M851.607,155.309L803.479,30.71l-48.128,124.599H851.607z"/>
<polygon fill="#090909" points="1485.472,2.955 1396.595,224.402 1366.183,224.402 1277.31,2.955 1307.722,2.955 1381.539,193.399 
	1455.058,2.955 "/>
<polygon fill="#090909" points="1184.33,2.955 1095.453,224.402 1065.041,224.402 976.167,2.955 1006.58,2.955 1080.396,193.399 
	1153.916,2.955 "/>
<polygon fill="#090909" points="1692.117,119.288 1692.117,224.402 1664.951,224.402 1664.951,119.879 1587.591,2.954 
	1618.003,2.954 1678.535,96.553 1739.062,2.954 1769.179,2.954 "/>
<polygon fill="#21C5D0" points="287.878,43.304 247.038,84.134 237.668,93.514 111.428,219.744 0,109.975 31.258,73.264 
	111.428,148.854 212.048,48.244 220.397,39.884 252.678,7.614 "/>
</svg>
