<svg width="41" height="46" viewBox="0 0 41 46" fill="none" xmlns="http://www.w3.org/2000/svg">
<path fill-rule="evenodd" clip-rule="evenodd" d="M20.8424 0.0706748C20.5742 -0.0235583 20.2819 -0.0235583 20.0137 0.0706748L1.51367 6.57067C1.07647 6.72429 0.760125 7.10715 0.691719 7.56548C-1.34554 21.2151 1.35092 30.5204 5.72634 36.5932C10.0823 42.639 16.0163 45.3567 20.2439 45.9864C20.3815 46.0069 20.5216 46.0042 20.6584 45.9786C30.8295 44.0715 36.2001 37.0981 38.7527 29.3538C41.2882 21.6613 41.1003 13.0949 40.1605 7.54143C40.0846 7.09314 39.7713 6.72139 39.3424 6.57067L20.8424 0.0706748ZM7.75471 35.1318C3.91275 29.7994 1.3021 21.4105 3.05757 8.67804L20.428 2.57491L37.8107 8.68233C38.5985 13.9627 38.6453 21.6934 36.3784 28.5712C34.0408 35.6632 29.3007 41.7338 20.4065 43.4813C16.8066 42.8857 11.6163 40.4914 7.75471 35.1318ZM18.178 13.5V18.75H24.178V13.5H18.178ZM15.678 13.25V18.75H12.928C12.3757 18.75 11.928 19.1977 11.928 19.75V30.75C11.928 31.3023 12.3757 31.75 12.928 31.75H28.928C29.4803 31.75 29.928 31.3023 29.928 30.75V19.75C29.928 19.1977 29.4803 18.75 28.928 18.75H26.678V13.25C26.678 12.0109 25.6763 11 24.4301 11H17.9266C16.6817 11 15.678 12.0096 15.678 13.25ZM22.928 24.75C22.928 25.4903 22.5258 26.1366 21.928 26.4824V29.35C21.928 29.5709 21.7489 29.75 21.528 29.75H20.328C20.1071 29.75 19.928 29.5709 19.928 29.35V26.4824C19.3302 26.1366 18.928 25.4903 18.928 24.75C18.928 23.6454 19.8234 22.75 20.928 22.75C22.0325 22.75 22.928 23.6454 22.928 24.75Z" fill="#197E84"/>
</svg>
